<!-- icon666.com - MILLIONS OF FREE VECTOR ICONS --><svg version="1.1" id="Capa_1" xmlns="http://www.w3.org/2000/svg" xmlns:xlink="http://www.w3.org/1999/xlink" x="0px" y="0px" viewBox="0 0 512 512" style="enable-background:new 0 0 512 512;" xml:space="preserve"><path style="fill:#00E890;" d="M392.273,14.241l-2.162-8.852l-8.852-2.161c-5.222-1.276-51.755-11.733-76.961,13.472 s-14.748,71.739-13.473,76.961l2.162,8.852l8.852,2.161c2.455,0.6,14.035,3.227,28.238,3.227c16.015,0,35.365-3.342,48.723-16.7 C404.007,65.997,393.548,19.464,392.273,14.241z"></path><path style="fill:#00C47A;" d="M392.273,14.241l-2.162-8.852l-97.124,97.125l8.852,2.161c2.455,0.6,14.035,3.227,28.238,3.227 c16.015,0,35.365-3.342,48.723-16.7C404.007,65.997,393.548,19.464,392.273,14.241z"></path><path style="fill:#FF9900;" d="M301.445,75.537c-64.653,0-117.253,52.599-117.253,117.253s52.6,117.253,117.253,117.253 s117.253-52.6,117.253-117.253S366.099,75.537,301.445,75.537z"></path><path style="fill:#00B571;" d="M290.693,215.395v-35.214c0-31.514-22.034-57.979-51.505-64.799v-85.32h20.708v-30H124.098v30h20.709 v85.32c-29.471,6.82-51.505,33.285-51.505,64.799v35.214H290.693z"></path><path style="fill:#00935C;" d="M290.693,215.395v-35.214c0-31.514-22.034-57.979-51.505-64.799v-85.32h20.708v-30h-67.899v215.333 L290.693,215.395L290.693,215.395z"></path><polygon style="fill:#FF9900;" points="256,512 256,201.014 57.072,201.014 0.475,324.413 27.745,336.92 62.211,261.771 62.211,512 "></polygon><g><polygon style="fill:#FF7700;" points="454.928,201.014 256,201.014 256,512 449.788,512 449.788,463 432,400.244 449.788,337.489 449.788,261.769 484.255,336.92 511.525,324.413 "></polygon><rect x="128" y="422.33" style="fill:#FF7700;" width="64" height="30"></rect><rect x="224" y="422.33" style="fill:#FF7700;" width="50" height="30"></rect><rect x="128" y="369" style="fill:#FF7700;" width="30" height="30"></rect></g><path style="fill:#FFF1AB;" d="M449.729,463c-34.604,0-62.755-28.152-62.755-62.755s28.151-62.756,62.755-62.756V463z"></path><rect x="365.66" y="385.24" style="fill:#00C47A;" width="84.06" height="30"></rect><polygon style="fill:#FFD699;" points="454.928,201.014 57.072,201.014 142.239,335 369.761,335 "></polygon><polygon style="fill:#FFC266;" points="255.353,201.014 255.353,335 369.761,335 454.928,201.014 "></polygon></svg>