<!-- icon666.com - MILLIONS OF FREE VECTOR ICONS --><svg viewBox="0 0 58 58" xmlns="http://www.w3.org/2000/svg"><g id="Page-1" fill="none" fill-rule="evenodd"><g id="044---Scarf" fill-rule="nonzero" transform="translate(0 -1)"><path id="Shape" d="m52 25.79v32.21c0 .5522847-.4477153 1-1 1h-44c-.55228475 0-1-.4477153-1-1v-32.21l23-19.08z" fill="#f5efca"></path><path id="Shape" d="m45 14.97v-6.97c0-.55228475.4477153-1 1-1h5c.5522847 0 1 .44771525 1 1v12.78z" fill="#c03a2b"></path><path id="Shape" d="m52 25.79v4.1l-1.27-1.06-21.73-18.02-21.72 18.02-1.28 1.05v-4.09l23-19.08z" fill="#e4c05c"></path><path id="Shape" d="m57.74 25.9-2.49 2.82c-.3609645.4102397-.9843919.4547703-1.4.1l-1.85-1.53-23-19.08-23 19.08-1.85 1.53c-.41560805.3547703-1.03903552.3102397-1.4-.1l-2.49-2.82c-.18520367-.2035065-.27836728-.4743351-.25755257-.7487109.02081471-.2743757.15376824-.5280506.36755257-.7012891l27.98-23.22c.3779117-.30994217.9220883-.30994217 1.3 0l27.98 23.22c.2137843.1732385.3467379.4269134.3675526.7012891.0208147.2743758-.0723489.5452044-.2575526.7487109z" fill="#e64c3c"></path><path id="Shape" d="m54 35v3l-11 11v-8l8-8h1c1.1032019.0032948 1.9967052.8967981 2 2z" fill="#e64c3c"></path><path id="Shape" d="m54 38v9c-.0032948 1.1032019-.8967981 1.9967052-2 2h-9z" fill="#c03a2b"></path><path id="Shape" d="m27 33v1l-15 15h-6c-.53059053.0028231-1.0395388-.2101411-1.41-.59l15.41-15.41z" fill="#e64c3c"></path><path id="Shape" d="m20 33-15.41 15.41c-.3798589-.3704612-.59282307-.8794095-.59-1.41v-6l8-8z" fill="#c03a2b"></path><path id="Shape" d="m12 33-8 8v-6c.0032948-1.1032019.89679813-1.9967052 2-2z" fill="#e64c3c"></path><g fill="#f0c419"><path id="Shape" d="m27 56c-.5522847 0-1-.4477153-1-1v-3c0-.5522847.4477153-1 1-1s1 .4477153 1 1v3c0 .5522847-.4477153 1-1 1z"></path><path id="Shape" d="m31 56c-.5522847 0-1-.4477153-1-1v-3c0-.5522847.4477153-1 1-1s1 .4477153 1 1v3c0 .5522847-.4477153 1-1 1z"></path><path id="Shape" d="m35 56c-.5522847 0-1-.4477153-1-1v-3c0-.5522847.4477153-1 1-1s1 .4477153 1 1v3c0 .5522847-.4477153 1-1 1z"></path><path id="Shape" d="m39 56c-.5522847 0-1-.4477153-1-1v-3c0-.5522847.4477153-1 1-1s1 .4477153 1 1v3c0 .5522847-.4477153 1-1 1z"></path><path id="Shape" d="m43 56c-.5522847 0-1-.4477153-1-1v-3c0-.5522847.4477153-1 1-1s1 .4477153 1 1v3c0 .5522847-.4477153 1-1 1z"></path></g><path id="Shape" d="m27 34v8l-7 7h-8z" fill="#c03a2b"></path><path id="Shape" d="m27 42v7h-7z" fill="#e64c3c"></path><path id="Shape" d="m51 33-8 8v-8z" fill="#c03a2b"></path><path id="Shape" d="m46 33v5l-3 3v-8z" fill="#802f34"></path><path id="Shape" d="m46 38v8l-3 3v-8z" fill="#c03a2b"></path><path id="Shape" d="m46 46v3h-3z" fill="#802f34"></path><path id="Shape" d="m27 42v7h-3v-4z" fill="#c03a2b"></path><path id="Shape" d="m27 34v8l-3 3v-8z" fill="#802f34"></path><path id="Shape" d="m27 33v1l-3 3v-4z" fill="#c03a2b"></path><path id="Shape" d="m44 32v21h-18v-21c.0049422-1.6548028 1.3451972-2.9950578 3-3h12c1.6548028.0049422 2.9950578 1.3451972 3 3z" fill="#e64c3c"></path><path id="Rectangle-path" d="m26 45h18v2h-18z" fill="#c03a2b"></path></g></g></svg>