<!-- icon666.com - MILLIONS OF FREE VECTOR ICONS --><svg version="1.1" id="Capa_1" xmlns="http://www.w3.org/2000/svg" xmlns:xlink="http://www.w3.org/1999/xlink" x="0px" y="0px" viewBox="0 0 490.667 490.667" style="enable-background:new 0 0 490.667 490.667;" xml:space="preserve"><path style="fill:#F6B445;" d="M181.333,437.333c0,5.888,4.779,10.667,10.667,10.667s10.667-4.779,10.667-10.667v-64 c0-5.888-4.779-10.667-10.667-10.667s-10.667,4.779-10.667,10.667V437.333z"></path><circle style="fill:#FED049;" cx="192" cy="266.667" r="138.667"></circle><path style="fill:#35DC86;" d="M330.667,0l106.667,170.667h-64v288c0,17.707-14.293,32-32,32H320c0,0-32,0-32-32 C288,448,288,384,288,384V266.667v-96h-64L330.667,0z"></path><path style="fill:#F6B445;" d="M202.667,181.333c0-5.888-4.779-10.667-10.667-10.667s-10.667,4.779-10.667,10.667V192h-10.667 c-17.643,0-32,14.357-32,32v21.333c0,17.643,14.357,32,32,32h42.667c5.877,0,10.667,4.779,10.667,10.667v21.333 c0,5.888-4.789,10.667-10.667,10.667h-42.667c-5.877,0-10.667-4.779-10.667-10.667v-10.667c0-5.899-4.779-10.667-10.667-10.667 s-10.667,4.768-10.667,10.667v10.667c0,17.643,14.357,32,32,32h10.667V352c0,5.899,4.779,10.667,10.667,10.667 s10.667-4.768,10.667-10.667v-10.667h10.667c17.643,0,32-14.357,32-32V288c0-17.643-14.357-32-32-32h-42.667 c-5.877,0-10.667-4.789-10.667-10.667V224c0-5.877,4.789-10.667,10.667-10.667h42.667c5.877,0,10.667,4.789,10.667,10.667v10.667 c0,5.888,4.779,10.667,10.667,10.667s10.667-4.779,10.667-10.667V224c0-17.643-14.357-32-32-32h-10.667V181.333z"></path><g><path style="fill:#2EBC70;" d="M320,362.667c0,5.888,4.779,10.667,10.667,10.667s10.667-4.779,10.667-10.667V192 c0-5.888-4.779-10.667-10.667-10.667c-5.888,0-10.667,4.779-10.667,10.667V362.667z"></path><path style="fill:#2EBC70;" d="M320,426.667c0,5.888,4.779,10.667,10.667,10.667s10.667-4.779,10.667-10.667v-21.333 c0-5.888-4.779-10.667-10.667-10.667c-5.888,0-10.667,4.779-10.667,10.667V426.667z"></path></g><g><path style="fill:#FED049;" d="M245.333,416c0,5.888,4.779,10.667,10.667,10.667s10.667-4.779,10.667-10.667v-42.667 c0-5.888-4.779-10.667-10.667-10.667s-10.667,4.779-10.667,10.667V416z"></path><path style="fill:#FED049;" d="M117.333,405.333c0,5.888,4.779,10.667,10.667,10.667s10.667-4.779,10.667-10.667v-42.667 c0-5.888-4.779-10.667-10.667-10.667s-10.667,4.779-10.667,10.667V405.333z"></path></g></svg>